<svg xmlns="http://www.w3.org/2000/svg" width="192.16" height="67.427" viewBox="0 0 192.16 67.427">
  <g id="logo" transform="translate(-394.044 -17.187)">
    <g id="logo-2" data-name="logo" transform="translate(394 31)">
      <g id="Ellipse_2" data-name="Ellipse 2">
        <path id="Forma_1" data-name="Forma 1" d="M41.991,20.36A22.8,22.8,0,0,1,31.92,14.437,23.29,23.29,0,0,1,26.1,4.205c-2.454,3.987-1.584,9.762,2.35,13.762S38.066,22.851,41.991,20.36ZM5.593,43.219a3.216,3.216,0,0,0,3.388-.761l22.28-18.635a16.112,16.112,0,0,1-5.13-3.5,16.417,16.417,0,0,1-3.442-5.213L4.35,37.748a3.315,3.315,0,0,0-.83,3.043Z" fill="#fff"/>
        <path id="Ellipse_1" data-name="Ellipse 1" d="M44.7,17.609a19.545,19.545,0,0,1-10.462-5.526A20.021,20.021,0,0,1,28.8,1.457c3.922-2.5,9.608-1.612,13.546,2.388S47.152,13.622,44.7,17.609Z"/>
        <path id="Ellipse_2-2" data-name="Ellipse 2" d="M3.31,40.9C2.959,41.2-.1,43.843.05,47.025a5.172,5.172,0,0,0,2.523,4.086l.392.2a11.082,11.082,0,0,0,3.58.621c4.358,0,7.608-2.887,10.547-5.5C20,43.846,22.751,41.4,26.414,41.4c8.443,0,14.979,9.193,15.046,9.284a1.611,1.611,0,0,0,2.281.393,1.679,1.679,0,0,0,.39-2.318c-.3-.436-7.57-10.689-17.718-10.689-4.893,0-8.392,3.108-11.479,5.848-3.411,3.03-6.367,5.656-10.716,4.294-.861-.644-.886-1.17-.9-1.349-.061-1.2,1.366-2.906,2.067-3.5Z"/>
      </g>
      <text id="TEVENT" transform="translate(62.204 22.187)" fill="#fff" font-size="33" font-family="SegoeUI, Segoe UI" letter-spacing="0.1em"><tspan x="0" y="0">TEVENT</tspan></text>
      <text id="Online_Confarence_2016" data-name="Online Confarence 2016" transform="translate(66.398 50.613)" fill="#fff" font-size="10" font-family="SegoeUI, Segoe UI" letter-spacing="0.06em"><tspan x="0" y="0">Online Confarence 2016</tspan></text>
      <rect id="Shape_1" data-name="Shape 1" width="48.925" height="0.693" transform="translate(66.398 33.28)" fill="#05072e"/>
      <rect id="Shape_1_copy" data-name="Shape 1 copy" width="48.925" height="0.693" transform="translate(140.484 33.28)" fill="#05072e"/>
      <path id="Shape_2" data-name="Shape 2" d="M127.9,38.827a4.854,4.854,0,1,1,4.893-4.854A4.879,4.879,0,0,1,127.9,38.827Zm.224-5.076h1.923a7.467,7.467,0,0,0-.3-1.908h-1.622Zm1.923.445h-1.923v1.9h1.623A7.465,7.465,0,0,0,130.051,34.2Zm2.291,0h-1.856a7.924,7.924,0,0,1-.283,1.9h1.592A4.35,4.35,0,0,0,132.341,34.2Zm-.82,2.334h-1.452a6.962,6.962,0,0,1-.815,1.643A4.46,4.46,0,0,0,131.521,36.53Zm-2.918,1.8a6.382,6.382,0,0,0,1-1.8h-1.48v1.846A4.505,4.505,0,0,0,128.6,38.327Zm-.924.049V36.53h-1.587a6.393,6.393,0,0,0,.987,1.775A4.522,4.522,0,0,0,127.679,38.376Zm-1.265-.25a6.975,6.975,0,0,1-.784-1.6h-1.343A4.462,4.462,0,0,0,126.413,38.126Zm-2.4-2.027H125.5a7.919,7.919,0,0,1-.283-1.9h-1.749A4.351,4.351,0,0,0,124.012,36.1Zm-.547-2.349h1.749a7.919,7.919,0,0,1,.284-1.908h-1.483A4.35,4.35,0,0,0,123.465,33.751Zm.824-2.339h1.341a6.976,6.976,0,0,1,.782-1.592A4.461,4.461,0,0,0,124.29,31.412Zm3.389-1.841a4.511,4.511,0,0,0-.6.071,6.39,6.39,0,0,0-.985,1.77h1.586Zm0,2.272H125.95a7.467,7.467,0,0,0-.3,1.908h2.03Zm-2.03,2.353a7.466,7.466,0,0,0,.3,1.9h1.73V34.2Zm2.479-4.625v1.841h1.478a6.382,6.382,0,0,0-1-1.792A4.509,4.509,0,0,0,128.128,29.571Zm1.127.2a6.965,6.965,0,0,1,.813,1.638h1.45A4.46,4.46,0,0,0,129.254,29.774Zm2.537,2.069H130.2a7.916,7.916,0,0,1,.284,1.908h1.856A4.352,4.352,0,0,0,131.792,31.843Z" fill="#05072e"/>
    </g>
    <path id="Color_Overlay" data-name="Color Overlay" d="M396.965,82.306l-.392-.194a5.175,5.175,0,0,1-2.523-4.086c-.152-3.183,2.91-5.829,3.261-6.122l2.079,2.468c-.7.591-2.128,2.3-2.066,3.5.01.179.035.706.9,1.349,4.35,1.363,7.306-1.265,10.716-4.294,3.087-2.741,6.586-5.848,11.479-5.848,10.147,0,17.413,10.253,17.717,10.688a1.678,1.678,0,0,1-.39,2.317,1.611,1.611,0,0,1-2.281-.393c-.068-.091-6.6-9.284-15.046-9.284-3.664,0-6.413,2.442-9.323,5.027-2.939,2.61-6.189,5.5-10.546,5.5A11.064,11.064,0,0,1,396.965,82.306Zm178.6-.79a2,2,0,0,1-.707-.633,3.038,3.038,0,0,1-.442-1.008,5.476,5.476,0,0,1-.151-1.343,6.308,6.308,0,0,1,.2-1.658,4.012,4.012,0,0,1,.576-1.274,2.648,2.648,0,0,1,.9-.818,2.417,2.417,0,0,1,1.176-.288,2.842,2.842,0,0,1,1.163.2v.757a2.472,2.472,0,0,0-1.143-.278,1.7,1.7,0,0,0-.844.21,1.952,1.952,0,0,0-.645.593,2.9,2.9,0,0,0-.412.926,4.679,4.679,0,0,0-.144,1.206h.02a1.68,1.68,0,0,1,1.6-.874,2.1,2.1,0,0,1,.827.156,1.793,1.793,0,0,1,.63.442,1.988,1.988,0,0,1,.4.681,2.784,2.784,0,0,1-.024,1.822,2.262,2.262,0,0,1-.459.742,2.042,2.042,0,0,1-.7.486,2.219,2.219,0,0,1-.879.174A2.01,2.01,0,0,1,575.564,81.516Zm.413-3.492a1.393,1.393,0,0,0-.439.305,1.434,1.434,0,0,0-.4.994,2.169,2.169,0,0,0,.1.676,1.75,1.75,0,0,0,.288.549,1.376,1.376,0,0,0,.442.369,1.213,1.213,0,0,0,.569.134,1.3,1.3,0,0,0,.552-.114,1.225,1.225,0,0,0,.425-.32,1.459,1.459,0,0,0,.274-.491,1.956,1.956,0,0,0,.1-.633,2.2,2.2,0,0,0-.093-.659,1.44,1.44,0,0,0-.266-.5,1.141,1.141,0,0,0-.427-.315,1.426,1.426,0,0,0-.576-.11A1.349,1.349,0,0,0,575.977,78.024ZM563.432,81.5a1.962,1.962,0,0,1-.7-.676,3.444,3.444,0,0,1-.43-1.092,6.78,6.78,0,0,1-.146-1.482,7.637,7.637,0,0,1,.153-1.621,3.723,3.723,0,0,1,.452-1.179,2.014,2.014,0,0,1,.74-.718,2.08,2.08,0,0,1,1.013-.241q2.2,0,2.2,3.589a6.849,6.849,0,0,1-.159,1.557,3.6,3.6,0,0,1-.459,1.145,2.056,2.056,0,0,1-.737.708,2.015,2.015,0,0,1-.994.242A1.882,1.882,0,0,1,563.432,81.5Zm-.452-3.289q0,2.836,1.47,2.837,1.45,0,1.45-2.891,0-2.988-1.42-2.988Q562.979,75.173,562.98,78.215Zm-15.325,2.834a2.784,2.784,0,0,1-.606-1.916,2.734,2.734,0,0,1,.661-1.9,2.12,2.12,0,0,1,1.643-.735,1.878,1.878,0,0,1,1.518.635,2.645,2.645,0,0,1,.537,1.762v.42h-3.531a1.873,1.873,0,0,0,.449,1.289,1.551,1.551,0,0,0,1.182.454,2.461,2.461,0,0,0,1.553-.557v.752a2.906,2.906,0,0,1-1.743.478A2.111,2.111,0,0,1,547.655,81.049Zm.723-3.474a1.842,1.842,0,0,0-.489,1.06h2.7a1.625,1.625,0,0,0-.334-1.079,1.139,1.139,0,0,0-.916-.386A1.293,1.293,0,0,0,548.377,77.575Zm-5.891,3.46a2.518,2.518,0,0,1-.657-1.8,2.769,2.769,0,0,1,.708-1.984,2.476,2.476,0,0,1,1.889-.75,2.624,2.624,0,0,1,1.162.245v.82a2.036,2.036,0,0,0-1.191-.391,1.609,1.609,0,0,0-1.257.549,2.085,2.085,0,0,0-.491,1.444,1.982,1.982,0,0,0,.462,1.386,1.591,1.591,0,0,0,1.237.508,2.008,2.008,0,0,0,1.231-.435v.761a2.6,2.6,0,0,1-1.367.347A2.26,2.26,0,0,1,542.487,81.034Zm-12.14.014a2.784,2.784,0,0,1-.606-1.916,2.734,2.734,0,0,1,.661-1.9,2.12,2.12,0,0,1,1.643-.735,1.877,1.877,0,0,1,1.518.635,2.645,2.645,0,0,1,.537,1.762v.42h-3.531a1.869,1.869,0,0,0,.45,1.289,1.548,1.548,0,0,0,1.181.454,2.461,2.461,0,0,0,1.553-.557v.752a2.906,2.906,0,0,1-1.743.478A2.111,2.111,0,0,1,530.347,81.049Zm.723-3.474a1.841,1.841,0,0,0-.489,1.06h2.7a1.625,1.625,0,0,0-.334-1.079,1.139,1.139,0,0,0-.915-.386A1.294,1.294,0,0,0,531.069,77.575Zm-10.7,3.76a1.374,1.374,0,0,1-.422-1.05q0-1.4,1.651-1.631l1.5-.21q0-1.274-1.031-1.274a2.461,2.461,0,0,0-1.631.616v-.821a3.1,3.1,0,0,1,1.7-.469q1.762,0,1.762,1.866v3.252h-.8v-.781h-.02a1.677,1.677,0,0,1-1.538.9A1.644,1.644,0,0,1,520.369,81.335Zm1.521-2.085a1.954,1.954,0,0,0-.84.276.8.8,0,0,0-.283.7.762.762,0,0,0,.261.6,1.007,1.007,0,0,0,.7.232,1.285,1.285,0,0,0,.984-.418,1.492,1.492,0,0,0,.389-1.057v-.5Zm-17.7,1.78a2.6,2.6,0,0,1-.661-1.858,2.7,2.7,0,0,1,.689-1.967,2.473,2.473,0,0,1,1.86-.708,2.241,2.241,0,0,1,1.745.688,2.729,2.729,0,0,1,.627,1.91,2.684,2.684,0,0,1-.676,1.916,2.368,2.368,0,0,1-1.814.72A2.318,2.318,0,0,1,504.19,81.03Zm.608-3.335a2.16,2.16,0,0,0-.449,1.448,2.037,2.037,0,0,0,.455,1.4,1.542,1.542,0,0,0,1.216.513,1.464,1.464,0,0,0,1.193-.5,2.186,2.186,0,0,0,.418-1.431,2.222,2.222,0,0,0-.418-1.445,1.457,1.457,0,0,0-1.193-.508A1.523,1.523,0,0,0,504.8,77.694Zm-7.172,3.073a3.549,3.549,0,0,1-.9-2.524,3.719,3.719,0,0,1,1.011-2.715,3.43,3.43,0,0,1,2.563-1.035,4.118,4.118,0,0,1,1.651.288v.874a3.348,3.348,0,0,0-1.66-.419,2.549,2.549,0,0,0-1.956.805,3.035,3.035,0,0,0-.749,2.153,2.886,2.886,0,0,0,.7,2.038,2.383,2.383,0,0,0,1.839.76,3.452,3.452,0,0,0,1.826-.469v.8a4.115,4.115,0,0,1-1.933.41A3.118,3.118,0,0,1,497.625,80.768Zm-9.452.281a2.784,2.784,0,0,1-.606-1.916,2.734,2.734,0,0,1,.661-1.9,2.12,2.12,0,0,1,1.643-.735,1.878,1.878,0,0,1,1.518.635,2.645,2.645,0,0,1,.537,1.762v.42H488.4a1.869,1.869,0,0,0,.45,1.289,1.55,1.55,0,0,0,1.182.454,2.461,2.461,0,0,0,1.553-.557v.752a2.9,2.9,0,0,1-1.743.478A2.111,2.111,0,0,1,488.174,81.049Zm.723-3.474a1.841,1.841,0,0,0-.489,1.06h2.7a1.63,1.63,0,0,0-.335-1.079,1.139,1.139,0,0,0-.915-.386A1.294,1.294,0,0,0,488.9,77.575Zm-27.143,3.174a3.64,3.64,0,0,1-.9-2.554,3.857,3.857,0,0,1,.913-2.695,3.186,3.186,0,0,1,2.485-1.006,3,3,0,0,1,2.336.977,3.65,3.65,0,0,1,.886,2.553,3.866,3.866,0,0,1-.908,2.71,3.13,3.13,0,0,1-2.432,1A3.073,3.073,0,0,1,461.753,80.749Zm.652-4.717a3.54,3.54,0,0,0-.017,4.172,2.191,2.191,0,0,0,1.751.788,2.3,2.3,0,0,0,1.816-.752,3.074,3.074,0,0,0,.664-2.105,3.21,3.21,0,0,0-.644-2.144,2.211,2.211,0,0,0-1.777-.756A2.256,2.256,0,0,0,462.4,76.032Zm108.059,5.581v-6.05a1.826,1.826,0,0,1-.271.212,4.333,4.333,0,0,1-.4.237c-.148.078-.3.151-.468.22a3.358,3.358,0,0,1-.482.161v-.81a4.78,4.78,0,0,0,.559-.2q.3-.124.581-.278c.191-.1.37-.211.539-.322a4.211,4.211,0,0,0,.44-.33h.3v7.159Zm-14.183,0v-.346a2.865,2.865,0,0,1,.1-.791,2.042,2.042,0,0,1,.322-.65,3.6,3.6,0,0,1,.588-.615q.365-.308.892-.694a5.648,5.648,0,0,0,.637-.522,2.756,2.756,0,0,0,.412-.5,1.778,1.778,0,0,0,.222-.5,2.177,2.177,0,0,0,.066-.545,1.449,1.449,0,0,0-.1-.562,1.087,1.087,0,0,0-.681-.634,1.6,1.6,0,0,0-.508-.078,1.677,1.677,0,0,0-.459.064,2.245,2.245,0,0,0-.437.175,2.693,2.693,0,0,0-.41.268,2.971,2.971,0,0,0-.368.347v-.859a2.391,2.391,0,0,1,.754-.5,2.661,2.661,0,0,1,1.018-.173,2.467,2.467,0,0,1,.8.124,1.826,1.826,0,0,1,.634.364,1.684,1.684,0,0,1,.422.591,1.991,1.991,0,0,1,.154.806,2.756,2.756,0,0,1-.1.752,2.318,2.318,0,0,1-.288.634,3.1,3.1,0,0,1-.486.571,6.973,6.973,0,0,1-.688.556q-.493.352-.813.6a3.6,3.6,0,0,0-.508.467,1.352,1.352,0,0,0-.264.434,1.525,1.525,0,0,0-.076.5H560.6v.717Zm-17.019,0V78.762q0-1.592-1.162-1.592a1.259,1.259,0,0,0-.994.452,1.67,1.67,0,0,0-.393,1.14v2.851h-.8v-5h.8v.831h.02a1.8,1.8,0,0,1,1.64-.948,1.529,1.529,0,0,1,1.255.53,2.358,2.358,0,0,1,.435,1.531v3.056Zm-13.256,0v-5h.8v1.031h.02a1.747,1.747,0,0,1,.522-.823,1.192,1.192,0,0,1,.787-.3,1.3,1.3,0,0,1,.479.068v.83a.983.983,0,0,0-.606-.161,1.022,1.022,0,0,0-.857.483,2.236,2.236,0,0,0-.345,1.318v2.549Zm-9.114,0V77.3h-.855v-.684h.855V75.8a1.686,1.686,0,0,1,.454-1.243,1.533,1.533,0,0,1,1.133-.456,1.549,1.549,0,0,1,.581.088v.722a1.069,1.069,0,0,0-.532-.131q-.84,0-.84,1.059v.771h1.172V77.3h-1.172v4.316Zm-3.213,0V78.762q0-1.592-1.162-1.592a1.259,1.259,0,0,0-.994.452,1.674,1.674,0,0,0-.393,1.14v2.851h-.8v-5h.8v.831h.02a1.8,1.8,0,0,1,1.641-.948,1.528,1.528,0,0,1,1.255.53,2.358,2.358,0,0,1,.435,1.531v3.056Zm-28.678,0V78.762q0-1.592-1.162-1.592a1.259,1.259,0,0,0-.994.452,1.674,1.674,0,0,0-.393,1.14v2.851h-.8v-5h.8v.831h.02a1.8,1.8,0,0,1,1.641-.948,1.529,1.529,0,0,1,1.255.53,2.358,2.358,0,0,1,.435,1.531v3.056Zm-6.371,0v-5h.8v5Zm-3.022,0v-7.4h.8v7.4Zm-2.91,0V78.762q0-1.592-1.162-1.592a1.259,1.259,0,0,0-.994.452,1.674,1.674,0,0,0-.393,1.14v2.851h-.8v-5h.8v.831h.02a1.8,1.8,0,0,1,1.641-.948,1.529,1.529,0,0,1,1.255.53,2.358,2.358,0,0,1,.435,1.531v3.056Zm5.976-6.416a.491.491,0,0,1-.152-.371.515.515,0,0,1,.517-.523.513.513,0,0,1,.374.149.521.521,0,0,1,0,.74.511.511,0,0,1-.374.151A.5.5,0,0,1,478.673,75.2Zm-79.08-.978-2.074-2.428a3.315,3.315,0,0,1,.831-3.043l18.338-22.639a16.412,16.412,0,0,0,3.442,5.212,16.12,16.12,0,0,0,5.13,3.5L402.981,73.458a3.18,3.18,0,0,1-2.279.952A3.335,3.335,0,0,1,399.593,74.218ZM517.01,64.973a4.893,4.893,0,1,1,4.893,4.854A4.879,4.879,0,0,1,517.01,64.973Zm4.068,4.332a4.714,4.714,0,0,0,.6.071V67.53h-1.587A6.41,6.41,0,0,0,521.078,69.3Zm1.049.07a4.335,4.335,0,0,0,.475-.049,6.386,6.386,0,0,0,1.005-1.8h-1.481Zm1.127-.2a4.458,4.458,0,0,0,2.266-1.643h-1.452A6.955,6.955,0,0,1,523.255,69.172Zm-2.841-.046a6.985,6.985,0,0,1-.784-1.6h-1.343A4.462,4.462,0,0,0,520.413,69.126ZM524.2,67.1h1.592a4.355,4.355,0,0,0,.547-1.9h-1.857A7.854,7.854,0,0,1,524.2,67.1Zm-2.075,0h1.623a7.441,7.441,0,0,0,.3-1.9h-1.923Zm-2.179,0h1.73V65.2h-2.03A7.447,7.447,0,0,0,519.949,67.1Zm-1.937,0H519.5a7.9,7.9,0,0,1-.283-1.9h-1.749A4.342,4.342,0,0,0,518.012,67.1Zm6.473-2.348h1.857a4.349,4.349,0,0,0-.55-1.908H524.2A7.892,7.892,0,0,1,524.485,64.751Zm-2.357,0h1.923a7.486,7.486,0,0,0-.3-1.908h-1.622Zm-2.479,0h2.03V62.843H519.95A7.486,7.486,0,0,0,519.648,64.751Zm-2.182,0h1.749a7.892,7.892,0,0,1,.283-1.908h-1.483A4.348,4.348,0,0,0,517.466,64.751Zm6.6-2.339h1.45a4.46,4.46,0,0,0-2.263-1.638A6.973,6.973,0,0,1,524.067,62.411Zm-1.94,0h1.479a6.408,6.408,0,0,0-1-1.792,4.609,4.609,0,0,0-.476-.049Zm-1.049-1.769a6.374,6.374,0,0,0-.985,1.769h1.585v-1.84A4.409,4.409,0,0,0,521.078,60.642Zm-2.788,1.769h1.341a6.973,6.973,0,0,1,.782-1.591A4.458,4.458,0,0,0,518.29,62.411Zm16.194,2.561V64.28h48.925v.693Zm-74.086,0V64.28h48.925v.693Zm115.48-11.786V32.529h-6.655V30.08h16.033v2.449h-6.671V53.186Zm-16.964,0L547.022,34.769a7.7,7.7,0,0,1-.741-1.45h-.1a23.648,23.648,0,0,1,.13,3.174V53.186h-2.707V30.08h3.513l11.57,18.128q.725,1.127.934,1.546h.065a24.355,24.355,0,0,1-.161-3.4V30.08h2.706V53.186Zm-35.3,0V30.08h11.731v2.449H526.32v7.686h8.347v2.434H526.32v8.088h9.539v2.45Zm-18.157,0L497.077,30.08h3.013l6.4,18.32a10.853,10.853,0,0,1,.467,2.047h.065a9.967,9.967,0,0,1,.532-2.078l6.526-18.289h2.916l-8.556,23.107Zm-25.633,0V30.08h11.731v2.449h-9.023v7.686h8.347v2.434h-8.347v8.088h9.539v2.45Zm-16.3,0V32.529h-6.655V30.08H472.9v2.449h-6.671V53.186Zm-41.074-4.22c-3.934-4-4.8-9.775-2.35-13.762a23.292,23.292,0,0,0,5.824,10.232,22.81,22.81,0,0,0,10.072,5.923,9.212,9.212,0,0,1-4.964,1.392A12.21,12.21,0,0,1,422.446,48.966Zm5.791-5.883A20.027,20.027,0,0,1,422.8,32.456c3.923-2.5,9.608-1.612,13.546,2.388s4.806,9.778,2.352,13.765A19.545,19.545,0,0,1,428.236,43.083Z" fill="#fff"/>
  </g>
</svg>
